<svg width="953" height="260" viewBox="0 0 953 260" fill="none" xmlns="http://www.w3.org/2000/svg">
<path d="M155.713 130C155.713 138.536 157.391 146.988 160.651 154.874C163.912 162.761 168.691 169.926 174.716 175.962C180.74 181.998 187.893 186.786 195.764 190.052C203.636 193.319 212.073 195 220.593 195C229.113 195 237.55 193.319 245.422 190.052C253.293 186.786 260.446 181.998 266.47 175.962C272.495 169.926 277.274 162.761 280.535 154.874C283.795 146.988 285.473 138.536 285.473 130V65H259.521V130H259.5C258.815 150.937 241.658 167.7 220.593 167.7C199.528 167.7 182.37 150.937 181.686 130H181.665V65H155.713L155.713 130Z" fill="white"/>
<path d="M828.178 154.874C824.918 146.988 823.239 138.536 823.239 130V65H849.192V130H849.213C849.897 150.937 867.055 167.7 888.12 167.7C909.185 167.7 926.342 150.937 927.027 130H927.048V65H953V195C953 203.536 951.322 211.988 948.061 219.874C944.801 227.761 940.022 234.926 933.997 240.962C927.972 246.998 920.82 251.786 912.948 255.052C905.077 258.319 896.64 260 888.12 260C879.6 260 871.163 258.319 863.291 255.052C855.42 251.786 848.267 246.998 842.242 240.962C836.506 235.215 831.898 228.443 828.656 221H860.319C867.385 228.22 877.23 232.7 888.12 232.7C909.185 232.7 926.342 215.937 927.027 195H927.048V182C922.713 185.257 917.977 187.965 912.948 190.052C905.077 193.319 896.64 195 888.12 195C879.6 195 871.163 193.319 863.291 190.052C855.42 186.786 848.267 181.998 842.242 175.962C836.218 169.926 831.439 162.761 828.178 154.874Z" fill="white"/>
<path d="M324.401 91C324.401 76.6406 336.021 65 350.354 65V195H324.401V91Z" fill="white"/>
<path d="M493.09 26C493.09 11.6406 504.709 0 519.042 0V130C519.042 165.898 489.994 195 454.162 195C418.33 195 389.282 165.898 389.282 130C389.282 94.1015 418.33 65 454.162 65C458.606 65 462.945 65.4476 467.138 66.3002V93.2192C463.079 91.782 458.712 91 454.162 91C432.663 91 415.234 108.461 415.234 130C415.234 151.539 432.663 169 454.162 169C475.661 169 493.09 151.539 493.09 130V26Z" fill="white"/>
<path d="M103.808 234C103.808 248.359 115.428 260 129.761 260V130C129.761 94.1015 100.713 65 64.8803 65C29.0479 65 0 94.1015 0 130C0 165.898 29.0479 195 64.8803 195C69.3241 195 73.6636 194.552 77.8563 193.7V166.781C73.7977 168.218 69.4302 169 64.8803 169C43.3809 169 25.9521 151.539 25.9521 130C25.9521 108.461 43.3809 91 64.8803 91C86.3797 91 103.808 108.461 103.808 130V234Z" fill="white"/>
<path d="M544.994 26C544.994 11.6406 556.614 0 570.947 0V130.379L636.205 64.9996C646.34 75.1532 646.34 91.6155 636.205 101.769L607.745 130.282L672.344 195H635.642L589.394 148.667L570.947 167.148V195H544.994V26Z" fill="white"/>
<path fill-rule="evenodd" clip-rule="evenodd" d="M766.206 156H796.522C793.762 162.328 790.026 168.13 785.505 173.216C782.629 176.45 779.436 179.394 775.975 182C765.13 190.163 751.649 195 737.04 195C701.208 195 672.16 165.899 672.16 130C672.16 94.1015 701.208 65 737.04 65C751.649 65 765.13 69.8372 775.975 78C779.436 80.6056 782.629 83.5501 785.505 86.7843C789.225 90.9693 792.414 95.6394 794.964 100.688C795.169 100.984 795.364 101.291 795.547 101.608C799.13 107.826 797.003 115.777 790.797 119.367L715.738 162.782C721.864 166.786 729.181 169.112 737.04 169.112C748.639 169.112 759.056 164.045 766.206 156ZM699.855 141.947L765.951 103.716C758.809 95.8356 748.501 90.8876 737.04 90.8876C715.479 90.8876 698 108.399 698 130C698 134.167 698.65 138.181 699.855 141.947Z" fill="white"/>
</svg>
